<?xml version="1.0" standalone="no"?>
<!DOCTYPE svg PUBLIC "-//W3C//DTD SVG 20010904//EN"
 "http://www.w3.org/TR/2001/REC-SVG-20010904/DTD/svg10.dtd">
<svg version="1.0" xmlns="http://www.w3.org/2000/svg"
 width="256.000000pt" height="60.000000pt" viewBox="0 -1 256.000000 60.000000"
 preserveAspectRatio="xMidYMid meet">

<g transform="translate(0.000000,60.000000) scale(0.100000,-0.100000)"
fill="#ffffff" stroke="none">
<path d="M550 295 l0 -195 40 0 40 0 0 195 0 195 -40 0 -40 0 0 -195z"/>
<path d="M700 295 l0 -195 40 0 40 0 0 195 0 195 -40 0 -40 0 0 -195z"/>
<path d="M850 295 l0 -195 35 0 c24 0 35 5 35 15 0 12 7 11 38 -5 50 -26 93
-18 131 26 80 90 29 254 -78 254 -20 0 -47 -7 -59 -16 l-22 -15 0 65 0 66 -40
0 -40 0 0 -195z m166 27 c35 -23 45 -102 18 -140 -18 -26 -60 -29 -86 -5 -24
22 -25 109 -1 135 16 18 49 23 69 10z"/>
<path d="M2370 425 c0 -69 -3 -73 -34 -50 -11 8 -32 15 -47 15 -78 0 -119 -50
-119 -146 0 -75 27 -121 82 -142 34 -13 41 -13 78 6 31 15 40 16 40 6 0 -9 12
-14 35 -14 l35 0 0 195 0 195 -35 0 -35 0 0 -65z m-25 -115 c21 -24 25 -93 6
-128 -9 -16 -21 -22 -47 -22 -31 0 -37 4 -50 37 -37 88 34 176 91 113z"/>
<path d="M435 457 c-51 -57 -51 -57 -6 -57 l41 0 0 40 c0 45 -6 48 -35 17z"/>
<path d="M1241 372 c-96 -52 -93 -214 4 -261 71 -34 165 -6 197 59 67 133 -71
271 -201 202z m113 -63 c21 -16 26 -29 26 -63 0 -57 -22 -86 -65 -86 -43 0
-65 29 -65 86 0 34 5 47 26 63 15 12 32 21 39 21 7 0 24 -9 39 -21z"/>
<path d="M1520 271 c0 -110 2 -122 23 -145 31 -35 74 -41 120 -17 29 15 37 16
37 5 0 -9 12 -14 35 -14 l35 0 0 145 0 146 -35 -3 -35 -2 0 -93 c0 -86 -2 -96
-25 -118 -56 -57 -85 -18 -85 115 l0 96 -35 2 -35 3 0 -120z"/>
<path d="M1863 383 c-10 -4 -13 -42 -13 -144 l0 -139 40 0 40 0 0 99 c0 107
10 131 54 131 39 0 46 -18 46 -127 l0 -103 41 0 41 0 -4 121 c-3 118 -4 121
-31 145 -35 30 -88 32 -128 3 -24 -17 -29 -18 -29 -5 0 9 -3 16 -7 17 -5 0
-15 2 -23 3 -8 2 -21 1 -27 -1z"/>
<path d="M270 295 l-34 -35 117 0 117 0 0 35 0 35 -83 0 c-82 0 -84 -1 -117
-35z"/>
<path d="M125 140 l-39 -40 192 0 192 0 0 40 0 40 -153 0 -153 0 -39 -40z"/>
</g>
</svg>
