<?xml version="1.0" encoding="UTF-8" standalone="no"?>
<svg viewBox="0 0 581 180" version="1.1" xmlns="http://www.w3.org/2000/svg" xmlns:xlink="http://www.w3.org/1999/xlink" xmlns:sketch="http://www.bohemiancoding.com/sketch/ns">
    <!-- Generator: Sketch 3.4.2 (15855) - http://www.bohemiancoding.com/sketch -->
    <title>Page 1</title>
    <desc>Created with Sketch.</desc>
    <defs>
        <path id="path-1" d="M0,0.785625 L580.239375,0.785625 L580.239375,180 L0,180"></path>
    </defs>
    <g id="Page-1" stroke="none" stroke-width="1" fill="none" fill-rule="evenodd" sketch:type="MSPage">
        <g id="Desktop-HD-Copy-26" sketch:type="MSArtboardGroup" transform="translate(-349.000000, -2646.000000)">
            <g id="Page-1" sketch:type="MSLayerGroup" transform="translate(349.000000, 2646.000000)">
                <mask id="mask-2" sketch:name="Clip 2" fill="white">
                    <use xlink:href="#path-1"></use>
                </mask>
                <g id="Clip-2"></g>
                <path d="M547.971188,59.319 C549.911813,59.319 551.089313,60.669 551.574938,62.485875 C552.604313,66.333375 547.583063,75.708375 530.034938,86.478375 C530.423063,73.994625 537.966188,59.319 547.971188,59.319 M494.248688,59.319 C497.177438,59.319 497.368688,62.20275 497.507438,63.235875 C498.251813,68.680875 493.217438,78.32775 476.760563,83.860875 C478.515563,72.325875 486.103688,59.319 494.248688,59.319 M423.263062,13.9215 C428.818688,13.9215 424.260563,32.868375 406.575563,59.403375 C410.625563,24.23775 416.475563,13.9215 423.263062,13.9215 M362.231812,59.319 C363.878063,59.319 364.290563,60.62775 364.508062,61.37025 C365.224312,63.794625 362.670563,73.345875 343.592438,86.69775 C344.683688,73.959 352.440562,59.319 362.231812,59.319 M283.178063,166.874625 C281.198063,166.874625 279.853687,165.60525 279.853687,163.132125 C279.853687,151.72275 297.666187,136.128375 297.861188,136.0815 C295.431187,151.42275 289.209937,166.874625 283.178063,166.874625 M577.301813,91.584 C574.294313,89.589 570.225563,90.4065 568.213688,93.404625 C567.881813,93.895875 559.939313,105.472125 546.099938,105.472125 C540.656813,105.472125 536.537438,103.79025 533.859938,100.469625 C533.678063,100.2465 533.505563,100.014 533.334938,99.774 C533.396813,99.744 533.454938,99.71025 533.513063,99.6765 C566.044313,80.964 565.849313,65.065875 564.257438,59.099625 C562.348688,51.959625 555.958688,47.347125 547.971188,47.347125 C529.382438,47.347125 516.893063,68.103375 516.893063,87.487125 C516.893063,89.950875 517.116188,92.309625 517.511813,94.569 C510.923063,99.442125 500.681813,105.472125 491.691188,105.472125 C486.452438,105.472125 482.514938,103.915875 479.991188,100.84275 C479.089313,99.74775 478.401188,98.52525 477.885563,97.25775 C502.802438,90.033375 512.243063,74.133375 510.512438,61.46025 C509.379938,53.15025 503.179313,47.347125 495.441188,47.347125 C478.106813,47.347125 465.581813,65.549625 463.554938,83.609625 C460.238063,83.264625 457.234313,82.289625 454.566188,80.647125 C455.006813,77.782125 455.228063,74.96775 455.228063,72.294 C455.228063,66.408375 454.106812,61.28025 451.984313,57.457125 C449.076188,52.22775 444.366188,49.34775 438.718687,49.34775 C435.692438,49.34775 432.973688,51.0165 431.443688,53.814 C428.224313,59.699625 430.277437,71.124 436.213688,80.388375 C437.364938,82.180875 438.617438,83.8365 439.967438,85.349625 C436.731187,95.799 430.018688,105.62775 421.239937,105.62775 C417.302438,105.62775 414.349313,104.41275 411.951188,101.80275 C408.495563,98.043375 406.294312,91.359 405.572437,82.908375 C430.014938,52.372125 441.883688,22.5015 435.129938,8.3565 C432.833062,3.54525 428.531813,0.78525 423.326813,0.78525 C406.433063,0.78525 396.369938,22.659 392.567438,67.653375 C392.334937,70.405875 392.162438,73.728375 392.194313,77.343375 C383.164313,89.564625 368.366813,105.472125 355.007438,105.472125 C351.195563,105.472125 348.414938,104.184 346.508063,101.534625 C346.344938,101.309625 346.189313,101.073375 346.039313,100.82775 C346.194937,100.743375 346.350563,100.6515 346.500563,100.554 C379.286812,79.353375 378.818062,63.490875 377.096813,57.652125 C375.219938,51.29775 369.523687,47.347125 362.231812,47.347125 C343.151813,47.347125 330.334312,69.26025 330.334312,89.72775 C330.334312,91.58025 330.450562,93.374625 330.668063,95.10525 C324.651188,99.438375 319.658063,103.300875 314.869313,107.03775 C315.585562,101.440875 316.652438,94.3665 317.841188,83.75025 L317.841188,83.7465 C318.124312,81.603375 318.362437,79.8465 318.480563,78.984 C319.551188,71.227125 306.825563,69.622125 305.447438,78.279 C304.031813,87.190875 300.193688,105.62775 289.734938,105.62775 C283.408688,105.62775 280.088062,98.602125 280.703063,88.3815 C281.670562,72.309 290.342437,59.20275 301.093688,59.20275 C304.781813,59.20275 306.699938,63.149625 306.699938,63.149625 C310.088062,69.32025 320.629313,64.1115 318.403687,57.5865 C317.411812,54.670875 313.860562,47.4315 301.611188,47.4315 C276.435563,47.4315 268.656188,72.910875 267.538688,89.72775 C267.354938,92.49525 267.405563,95.169 267.660563,97.713375 C264.152438,101.988375 259.974938,105.62775 255.908063,105.62775 C251.921813,105.62775 249.398063,101.185875 250.886813,90.9315 C252.306187,81.149625 253.309313,73.064625 253.984313,68.332125 C257.027438,46.934625 230.263688,47.523375 230.263688,47.523375 C230.263688,47.523375 229.971188,35.043375 219.658688,35.043375 C214.384313,35.043375 209.696813,39.144 209.696813,46.878375 C209.696813,54.02775 215.556188,57.543375 215.556188,57.543375 L215.589938,57.549 C214.292438,68.62275 209.093063,105.62775 197.548688,105.62775 C192.373688,105.62775 192.015563,100.03275 192.471188,96.097125 C193.103063,90.6315 194.091188,81.3765 194.421188,78.984 C195.489938,71.227125 182.764313,69.622125 181.388063,78.279 C179.970563,87.190875 176.132438,105.62775 165.673688,105.62775 C159.345563,105.62775 156.024938,97.679625 156.533063,88.113375 C157.403063,71.72025 166.281188,59.20275 177.032438,59.20275 C180.718688,59.20275 182.638688,63.149625 182.638688,63.149625 C185.439938,69.262125 196.513688,64.867125 194.344313,57.5865 C193.386188,54.370875 189.799313,47.4315 177.548063,47.4315 C152.374313,47.4315 144.594938,72.910875 143.477438,89.72775 C143.304938,92.33025 143.346188,94.844625 143.561813,97.25025 C139.956188,102.14025 135.621188,105.62775 131.528063,105.62775 C127.804313,105.62775 124.941188,103.70775 125.627438,95.245875 C125.948063,91.293375 130.553063,64.270875 130.245563,59.3415 C129.737438,51.145875 126.024938,47.53275 116.884313,47.53275 C107.274938,47.53275 100.011188,52.473375 96.9624375,55.629 C96.9624375,55.629 101.513063,21.53025 102.373688,14.98275 C103.277438,8.122125 90.0886875,8.05275 89.2280625,14.9265 C88.8549375,17.905875 85.3336875,44.92275 82.0711875,69.864 C74.7193125,86.15025 59.8186875,111.25275 37.7611875,111.25275 C-4.0288125,111.25275 15.2555625,20.159625 54.3474375,20.159625 C63.5086875,20.159625 59.4174375,34.792125 53.2730625,43.71525 C48.8855625,50.088375 59.9405625,57.41775 66.0474375,47.11275 C82.9224375,18.637125 68.7005625,7.989 55.3336875,7.989 C-2.7631875,7.989 -24.3256875,123.839625 36.1918125,123.839625 C56.1155625,123.839625 69.4486875,112.642125 78.0399375,100.600875 C77.1399375,107.440875 76.5230625,112.10025 76.3974375,112.972125 C75.3718125,120.1215 88.7311875,119.534625 89.4343125,113.559 C89.8824375,109.74525 91.8661875,93.76275 93.5649375,81.565875 C94.5361875,74.59275 103.056188,61.762125 112.824938,61.762125 C115.129313,61.762125 116.633063,64.04775 116.336813,66.007125 C115.991813,68.2815 111.838688,98.609625 112.119938,103.13025 C112.907438,115.784625 121.954313,118.71525 130.566188,118.71525 C137.391188,118.71525 142.847438,115.494 147.443063,110.422125 C150.489938,115.52025 155.214938,118.687125 161.569313,118.687125 C176.124938,118.687125 181.142438,108.205875 181.142438,108.205875 C181.142438,108.205875 182.882438,118.585875 195.420563,118.585875 C220.830563,118.585875 226.755563,74.26275 228.024938,59.484 C229.509938,59.542125 238.491188,60.093375 239.970563,65.12025 C241.388063,69.939 236.884313,85.3965 236.513063,101.309625 C236.318063,109.69275 239.396813,118.687125 252.666188,118.687125 C260.769938,118.687125 267.122438,114.974625 271.725563,110.7615 C274.776188,115.653375 279.422438,118.687125 285.628688,118.687125 C292.794938,118.687125 297.639938,116.392125 300.722437,114.063375 C300.518063,115.434 300.323063,116.7765 300.131813,118.143375 C300.122438,118.22775 300.109312,118.314 300.098063,118.40025 C300.131813,118.143375 266.588063,142.34775 266.588063,165.23025 C266.588063,174.153375 270.726187,179.999625 281.297438,179.999625 C302.334938,179.999625 308.828063,151.938375 311.933063,128.709 C312.081188,127.612125 312.221813,126.5715 312.356813,125.574 C315.647438,123.08025 318.709313,120.689625 321.681188,118.368375 C326.048062,114.963375 330.274313,111.667125 335.130563,108.085875 C335.370563,108.459 335.597438,108.843375 335.854313,109.199625 C340.277438,115.34775 346.899938,118.597125 355.007438,118.597125 C370.226812,118.597125 384.313688,106.9215 394.461188,95.499 C395.985563,101.139 398.434313,106.488375 402.289313,110.684625 C407.139938,115.96275 413.693063,118.75275 421.239937,118.75275 C435.782438,118.75275 445.868063,107.15025 451.089938,93.669 C455.066812,95.515875 459.437438,96.579 464.104313,96.8265 C465.122437,101.574 467.049938,105.7665 469.849313,109.17525 C473.381813,113.474625 480.036188,118.597125 491.691188,118.597125 C503.267438,118.597125 514.761188,112.409625 522.482438,107.114625 C522.859313,107.658375 523.234313,108.20025 523.644938,108.712125 C527.284313,113.2215 534.133688,118.597125 546.099938,118.597125 C567.137438,118.597125 578.685563,101.369625 579.167438,100.634625 C581.145563,97.61775 580.307438,93.580875 577.301813,91.584" id="Fill-1" fill="#ffffff" sketch:type="MSShapeGroup" mask="url(#mask-2)"></path>
            </g>
        </g>
    </g>
</svg>