<svg viewBox="15 16 92 30" fill="none" xmlns="http://www.w3.org/2000/svg">
<path d="M37.6206 26.6523H26.886V29.8375H34.4997C34.1224 34.2959 30.4074 36.2096 26.8989 36.2096C25.7874 36.2145 24.6861 35.9979 23.6593 35.5725C22.6325 35.1471 21.7006 34.5214 20.9183 33.7319C20.1359 32.9425 19.5186 32.005 19.1025 30.9744C18.6864 29.9437 18.4798 28.8405 18.4947 27.7291C18.4947 22.9072 22.2278 19.1946 26.9092 19.1946C30.5205 19.1946 32.6486 21.4968 32.6486 21.4968L34.8778 19.1869C34.8778 19.1869 32.0141 16 26.7926 16C20.1435 16 15 21.6116 15 27.6726C15 33.6117 19.8383 39.4034 26.9606 39.4034C33.2256 39.4034 37.8118 35.1113 37.8118 28.7649C37.8118 27.4256 37.6172 26.6523 37.6172 26.6523H37.6206Z" fill="white"/>
<path d="M46.4149 24.3451C42.0096 24.3451 38.8527 27.7892 38.8527 31.8044C38.8527 35.8805 41.9136 39.3881 46.4664 39.3881C50.587 39.3881 53.9626 36.2389 53.9626 31.8919C53.9626 26.919 50.0357 24.3442 46.4149 24.3442V24.3451ZM46.4578 27.2997C48.6236 27.2997 50.6762 29.0513 50.6762 31.873C50.6762 34.6338 48.6322 36.4361 46.4475 36.4361C44.0468 36.4361 42.1605 34.5138 42.1605 31.8507C42.1605 29.2442 44.0297 27.2997 46.4647 27.2997H46.4578Z" fill="white"/>
<path d="M62.8606 24.3451C58.4553 24.3451 55.2983 27.7892 55.2983 31.8044C55.2983 35.8805 58.3592 39.3881 62.912 39.3881C67.0326 39.3881 70.4082 36.2389 70.4082 31.8919C70.4082 26.919 66.4813 24.3442 62.8606 24.3442V24.3451ZM62.9034 27.2997C65.0692 27.2997 67.1218 29.0513 67.1218 31.873C67.1218 34.6338 65.0778 36.4361 62.8931 36.4361C60.4924 36.4361 58.6062 34.5138 58.6062 31.8507C58.6062 29.2442 60.4753 27.2997 62.9103 27.2997H62.9034Z" fill="white"/>
<path d="M78.9907 24.3538C74.9472 24.3538 71.7697 27.8948 71.7697 31.8697C71.7697 36.3967 75.4539 39.3993 78.9204 39.3993C81.0639 39.3993 82.2042 38.5479 83.0359 37.5713V39.0546C83.0359 41.65 81.46 43.2044 79.0816 43.2044C76.7838 43.2044 75.6314 41.4956 75.2233 40.5268L72.3322 41.7271C73.3576 43.8963 75.4222 46.1573 79.1056 46.1573C83.1353 46.1573 86.1894 43.6254 86.1894 38.3147V24.8056H83.0479V26.0797C82.079 25.0337 80.7518 24.3538 78.9924 24.3538H78.9907ZM79.2822 27.3032C81.2645 27.3032 83.2999 28.9957 83.2999 31.886C83.2999 34.8242 81.2679 36.443 79.2385 36.443C77.083 36.443 75.0775 34.6939 75.0775 31.9134C75.0775 29.0257 77.161 27.3032 79.2822 27.3032Z" fill="white"/>
<path d="M100.23 24.3357C96.4164 24.3357 93.214 27.3709 93.214 31.8465C93.214 36.5844 96.7833 39.3941 100.588 39.3941C103.77 39.3941 105.732 37.6536 106.889 36.0931L104.289 34.3629C103.614 35.4089 102.486 36.4335 100.604 36.4335C98.4895 36.4335 97.5172 35.276 96.9145 34.1529L107 29.9688L106.486 28.7427C105.512 26.342 103.238 24.3357 100.23 24.3357ZM100.361 27.2285C101.736 27.2285 102.724 27.959 103.144 28.8353L96.4086 31.6501C96.1171 29.4706 98.1834 27.2285 100.353 27.2285H100.361Z" fill="white"/>
<path d="M88.398 38.9482H91.711V16.7786H88.398V38.9482Z" fill="white"/>
</svg>
