<svg viewBox="200 80 1280 365" fill="none" xmlns="http://www.w3.org/2000/svg">
<g clip-path="url(#clip0_11271_18110)">
<path d="M350.1 285.221H257.88V382.361H214.09V142.671H257.88V243.091H350.1V142.671H393.88V382.361H350.1V285.221Z" fill="white"/>
<path d="M534 304.882C534 324.842 517.74 341.092 497.78 341.092C477.82 341.092 461.57 324.852 461.57 304.882V202.222H420.1V304.882C420.1 347.712 454.95 382.552 497.78 382.552C540.61 382.552 575.45 347.712 575.45 304.882V202.222H534V304.882Z" fill="white"/>
<path d="M841.69 212.791C841.69 191.741 855.62 185.071 870.87 185.071C883.15 185.071 899.4 194.421 910.01 205.781L937.2 173.721C923.61 155.361 896.08 142.671 873.53 142.671C828.41 142.671 795.9 169.051 795.9 212.801C795.9 293.941 895.09 268.221 895.09 313.641C895.09 327.651 881.49 340.011 865.91 340.011C841.36 340.011 833.39 327.991 822.12 315.301L791.93 346.681C811.18 370.391 835.06 382.421 863.59 382.421C906.38 382.421 940.88 355.711 940.88 313.961C940.88 223.811 841.7 251.861 841.7 212.801L841.69 212.791Z" fill="white"/>
<path d="M1455.3 344.072C1430.76 344.072 1423.8 333.462 1423.8 317.202V245.222H1461.94V208.742H1423.8V160.642L1381.68 179.552V326.172C1381.68 363.662 1407.54 382.572 1443.02 382.572C1448.33 382.572 1455.63 382.232 1459.62 381.242L1469.91 343.432C1465.27 343.752 1459.96 344.082 1455.3 344.082V344.072Z" fill="white"/>
<path d="M692.05 203.422C671.48 203.422 657.13 209.392 643.26 223.002V144.102H601.66V290.332C601.66 345.062 641.23 382.552 685.7 382.552C735.13 382.552 778.43 344.402 778.43 292.992C778.43 241.582 738.5 203.422 692.05 203.422ZM691.79 340.692C665.73 340.692 644.61 319.572 644.61 293.512C644.61 267.452 665.73 246.332 691.79 246.332C717.85 246.332 738.97 267.452 738.97 293.512C738.97 319.572 717.85 340.692 691.79 340.692Z" fill="white"/>
<path d="M1143.68 290.831C1143.68 239.421 1100.37 201.271 1050.95 201.271C1006.49 201.271 966.91 238.761 966.91 293.491V439.721H1008.51V360.811C1022.38 374.421 1036.73 380.391 1057.3 380.391C1103.75 380.391 1143.68 341.581 1143.68 290.821V290.831ZM1104.22 290.321C1104.22 316.381 1083.1 337.501 1057.04 337.501C1030.98 337.501 1009.86 316.381 1009.86 290.321C1009.86 264.261 1030.98 243.141 1057.04 243.141C1083.1 243.141 1104.22 264.261 1104.22 290.321Z" fill="white"/>
<path d="M1278.1 199.261V157.471C1289.01 152.321 1296.65 141.281 1296.65 128.481V127.511C1296.65 109.841 1282.19 95.3813 1264.52 95.3813H1263.56C1245.89 95.3813 1231.43 109.841 1231.43 127.511V128.481C1231.43 141.291 1239.07 152.321 1249.98 157.471V199.261C1233.74 201.771 1218.9 208.471 1206.66 218.321L1091.93 129.071C1092.68 126.161 1093.21 123.171 1093.22 120.031C1093.23 100.011 1077.03 83.7713 1057.01 83.7413C1036.99 83.7113 1020.75 99.9213 1020.72 119.941C1020.7 139.961 1036.9 156.201 1056.92 156.231C1063.44 156.231 1069.48 154.391 1074.77 151.381L1187.63 239.171C1178.03 253.661 1172.41 271.011 1172.41 289.691C1172.41 308.371 1178.59 327.341 1189.03 342.221L1154.71 376.541C1152 375.731 1149.18 375.161 1146.2 375.161C1129.75 375.161 1116.42 388.491 1116.42 404.941C1116.42 421.391 1129.76 434.721 1146.2 434.721C1162.64 434.721 1175.98 421.391 1175.98 404.941C1175.98 401.961 1175.41 399.141 1174.6 396.431L1208.55 362.481C1223.96 374.241 1243.15 381.311 1264.04 381.311C1314.64 381.311 1355.66 340.291 1355.66 289.691C1355.66 243.881 1322.01 206.041 1278.1 199.261ZM1264.03 336.661C1238.09 336.661 1217.05 315.631 1217.05 289.691C1217.05 263.751 1238.08 242.721 1264.03 242.721C1289.98 242.721 1311 263.751 1311 289.691C1311 315.631 1289.97 336.661 1264.03 336.661Z" fill="white"/>
</g>
<defs>
<clipPath id="clip0_11271_18110">
<rect width="1255.82" height="355.99" fill="white" transform="translate(214.09 83.7412)"/>
</clipPath>
</defs>
</svg>
