<svg viewBox="3 20 114 27" fill="none" xmlns="http://www.w3.org/2000/svg">
<g clip-path="url(#clip0_15967_2100)">
<path d="M42.2796 29.7514C42.2796 29.209 41.8612 28.7639 41.2756 28.7639C40.6899 28.7639 40.2715 29.209 40.2715 29.7514V37.7623C40.2715 38.3048 40.6899 38.7498 41.2756 38.7498C41.8752 38.7498 42.2796 38.3048 42.2796 37.7623V29.7514Z" fill="white"/>
<path d="M52.1679 28.7639C51.5822 28.7639 51.1777 29.209 51.1777 29.7514V33.1727L51.2335 36.2325L50.0202 33.3674L48.4305 30.113C47.9424 29.0977 47.3847 28.7639 46.5897 28.7639C45.4184 28.7639 44.9023 29.501 44.9023 30.558V37.7623C44.9023 38.3048 45.3067 38.7498 45.8925 38.7498C46.4782 38.7498 46.8826 38.3048 46.8826 37.7623L46.8687 34.3828L46.8268 30.9196L48.1237 34.0906L49.7274 37.4007C50.2295 38.4577 50.7594 38.7638 51.5682 38.7638C52.6141 38.7638 53.1579 38.1239 53.1579 36.9418V29.7514C53.1579 29.209 52.7535 28.7639 52.1679 28.7639Z" fill="white"/>
<path d="M60.562 30.8085L62.8351 30.8641C63.365 30.878 63.7834 30.4747 63.7834 29.8905C63.7834 29.3064 63.365 28.9031 62.8351 28.9031L56.2529 28.8892C55.737 28.8892 55.3047 29.2925 55.3047 29.8766C55.3047 30.4608 55.737 30.8641 56.2529 30.8502L58.54 30.8085V37.7624C58.54 38.3048 58.9583 38.7499 59.5441 38.7499C60.1437 38.7499 60.562 38.3048 60.562 37.7624V30.8085Z" fill="white"/>
<path d="M67.3005 38.6247H72.1953C72.7113 38.6247 73.1297 38.2353 73.1297 37.6928C73.1297 37.1365 72.7113 36.7471 72.1953 36.7471L67.942 36.761V34.4384H71.6235C72.1256 34.4384 72.53 34.0628 72.53 33.5483C72.53 33.0198 72.1256 32.6442 71.6235 32.6442L67.942 32.6721V30.7528H72.1953C72.7113 30.7528 73.1297 30.3634 73.1297 29.8071C73.1297 29.2508 72.7113 28.8752 72.1953 28.8752L67.3145 28.8891C66.4219 28.8891 65.9199 29.3898 65.9199 30.2799V37.2339C65.9199 38.124 66.4219 38.6247 67.3005 38.6247Z" fill="white"/>
<path d="M81.1024 34.661C82.4271 34.3133 83.2081 33.2841 83.2081 31.9211C83.2081 30.4051 82.218 28.8892 79.8473 28.8892H76.7793C75.8869 28.8892 75.3848 29.3898 75.3848 30.28V37.7624C75.3848 38.3048 75.8032 38.7499 76.4168 38.7499C77.0164 38.7499 77.4487 38.3048 77.4487 37.7624L77.4348 35.1477H79.1221L80.8374 38.2353C81.1163 38.7082 81.702 38.9028 82.2459 38.6247C82.7897 38.3327 82.9431 37.7485 82.6503 37.2757L81.1024 34.661ZM77.4348 30.7389H79.8612C80.684 30.7389 81.2 31.2535 81.2 32.0184C81.2 32.7695 80.7119 33.3258 79.8892 33.3258H77.4348V30.7389Z" fill="white"/>
<path d="M89.3674 38.8054C91.4035 38.8054 92.7143 37.8875 93.1605 36.3993C93.3976 35.5509 92.8956 34.939 92.1425 34.939C91.6823 34.939 91.3755 35.1754 91.1942 35.69C90.9154 36.4689 90.232 36.9557 89.2558 36.9557C87.7079 36.9557 87.0385 35.9125 87.0385 33.7429C87.0385 31.615 87.7218 30.5998 89.2558 30.5998C90.2181 30.5998 90.7759 31.0031 91.1245 31.9349C91.3197 32.4634 91.6405 32.6998 92.1146 32.6998C92.8397 32.6998 93.3696 32.1157 93.1466 31.3091C92.7004 29.6679 91.4034 28.75 89.3116 28.75C86.4389 28.75 84.9746 30.5024 84.9746 33.7429C84.9746 37.0113 86.4389 38.8054 89.3674 38.8054Z" fill="white"/>
<path d="M99.2817 38.7776C102.238 38.7776 103.702 36.9695 103.702 33.7429C103.702 30.4885 102.196 28.6943 99.2817 28.6943C96.3532 28.6943 94.8889 30.5163 94.875 33.7429C94.875 36.9834 96.3671 38.7776 99.2817 38.7776ZM99.2817 36.914C97.6361 36.914 96.925 35.8709 96.925 33.7429C96.925 31.5872 97.6502 30.5441 99.2677 30.5441C100.899 30.5441 101.666 31.5872 101.652 33.7429C101.652 35.8847 100.927 36.914 99.2817 36.914Z" fill="white"/>
<path d="M116.684 30.5024C116.684 29.4037 116.001 28.75 114.941 28.75C114.077 28.75 113.421 29.2229 113.1 30.3077L112.027 33.7986L111.315 36.3159L110.632 33.7986L109.489 30.3077C109.168 29.2924 108.61 28.75 107.634 28.75C106.56 28.75 105.891 29.3898 105.891 30.5024V37.7623C105.891 38.3048 106.281 38.7498 106.853 38.7498C107.425 38.7498 107.815 38.3048 107.815 37.7623L107.801 34.2575L107.704 30.5024L108.805 34.341L109.977 37.7345C110.228 38.4855 110.702 38.7359 111.315 38.7359C111.887 38.7359 112.347 38.5272 112.584 37.7623L113.7 34.341L114.885 30.4746L114.774 34.2575V37.7623C114.774 38.3048 115.178 38.7498 115.736 38.7498C116.308 38.7498 116.698 38.3048 116.698 37.7623L116.684 30.5024Z" fill="white"/>
<path d="M25.7271 35.0572C25.7271 35.289 25.6357 35.5113 25.4731 35.6751C25.3105 35.839 25.09 35.9311 24.86 35.9311C24.63 35.9311 24.4094 35.839 24.2468 35.6751C24.0842 35.5113 23.9928 35.289 23.9928 35.0572V27.25C23.9928 27.0183 24.0842 26.796 24.2468 26.6321C24.4094 26.4682 24.63 26.3761 24.86 26.3761C25.09 26.3761 25.3105 26.4682 25.4731 26.6321C25.6357 26.796 25.7271 27.0183 25.7271 27.25V35.0572ZM25.426 40.4667C25.3114 40.5822 22.0867 43.2905 16.1748 43.2905C10.2629 43.2905 7.05974 40.5967 6.92359 40.481C6.83779 40.4082 6.76711 40.3189 6.71561 40.2184C6.66411 40.1178 6.6328 40.0081 6.62348 39.8954C6.61417 39.7827 6.62701 39.6692 6.6613 39.5615C6.69558 39.4538 6.75062 39.3539 6.82326 39.2677C6.97292 39.0932 7.18497 38.9855 7.41318 38.9678C7.64138 38.9502 7.86723 39.0244 8.04148 39.1739C8.09164 39.21 10.9723 41.5644 16.1676 41.5644C21.363 41.5644 24.2652 39.1955 24.2939 39.1739C24.4701 39.0256 24.6967 38.9525 24.9254 38.9701C25.1543 38.9876 25.3673 39.0944 25.5192 39.2677C25.6654 39.4397 25.7384 39.6628 25.7223 39.8886C25.7062 40.1144 25.6023 40.3248 25.4332 40.4739L25.426 40.4667ZM6.61546 27.25C6.62841 27.0175 6.73217 26.7997 6.90404 26.644C7.07592 26.4884 7.30194 26.4077 7.5327 26.4195C7.74662 26.4317 7.94847 26.5234 8.09931 26.6767C8.25017 26.8301 8.33934 27.0343 8.34961 27.25V35.0428C8.34961 35.2745 8.25826 35.4968 8.09565 35.6607C7.93304 35.8246 7.7125 35.9167 7.48253 35.9167C7.25257 35.9167 7.03203 35.8246 6.86941 35.6607C6.70681 35.4968 6.61546 35.2745 6.61546 35.0428V27.25ZM10.9652 25.5167C10.9781 25.2842 11.0819 25.0663 11.2538 24.9107C11.4256 24.7551 11.6517 24.6743 11.8824 24.6862C12.0963 24.6984 12.2982 24.79 12.449 24.9434C12.5999 25.0968 12.6891 25.301 12.6993 25.5167V37.0722C12.6993 37.304 12.608 37.5263 12.4454 37.6901C12.2828 37.854 12.0622 37.946 11.8323 37.946C11.6023 37.946 11.3818 37.854 11.2191 37.6901C11.0565 37.5263 10.9652 37.304 10.9652 37.0722V25.5167ZM15.3364 25.0834C15.3364 24.8516 15.4278 24.6293 15.5904 24.4655C15.753 24.3016 15.9736 24.2095 16.2034 24.2095C16.4335 24.2095 16.654 24.3016 16.8166 24.4655C16.9792 24.6293 17.0706 24.8516 17.0706 25.0834V37.65C17.0706 37.8817 16.9792 38.104 16.8166 38.268C16.654 38.4318 16.4335 38.5239 16.2034 38.5239C15.9736 38.5239 15.753 38.4318 15.5904 38.268C15.4278 38.104 15.3364 37.8817 15.3364 37.65V25.0834ZM19.636 25.5167C19.636 25.2849 19.7274 25.0627 19.89 24.8988C20.0526 24.7349 20.2731 24.6428 20.503 24.6428C20.733 24.6428 20.9536 24.7349 21.1162 24.8988C21.2788 25.0627 21.3701 25.2849 21.3701 25.5167V37.0722C21.3701 37.304 21.2788 37.5263 21.1162 37.6901C20.9536 37.854 20.733 37.946 20.503 37.946C20.2731 37.946 20.0526 37.854 19.89 37.6901C19.7274 37.5263 19.636 37.304 19.636 37.0722V25.5167ZM25.9635 20.7501H6.4148C5.98884 20.7472 5.56652 20.8291 5.172 20.9909C4.77747 21.1528 4.4185 21.3915 4.11564 21.6934C3.81278 21.9953 3.57197 22.3544 3.40701 22.7502C3.24205 23.146 3.15617 23.5707 3.1543 24.0001V43.5C3.15617 43.9292 3.24205 44.354 3.40701 44.7498C3.57197 45.1455 3.81278 45.5047 4.11564 45.8066C4.4185 46.1084 4.77747 46.3472 5.172 46.509C5.56652 46.671 5.98884 46.7527 6.4148 46.7499H25.9635C26.3888 46.7527 26.8106 46.6712 27.2046 46.5097C27.5987 46.3484 27.9574 46.1103 28.2601 45.8091C28.5629 45.508 28.8039 45.1497 28.9692 44.7547C29.1347 44.3598 29.2212 43.9358 29.224 43.5072V24.0001C29.2221 23.5714 29.1365 23.1472 28.972 22.7519C28.8075 22.3566 28.5674 21.9978 28.2652 21.696C27.9631 21.3942 27.605 21.1553 27.2113 20.993C26.8176 20.8307 26.396 20.7482 25.9707 20.7501" fill="white"/>
</g>
<defs>
<clipPath id="clip0_15967_2100">
<rect width="113.693" height="26" fill="white" transform="translate(3.1543 20.75)"/>
</clipPath>
</defs>
</svg>
