<?xml version="1.0" encoding="UTF-8"?>
<svg version="1.1" xmlns="http://www.w3.org/2000/svg" width="973" height="512">
<path d="M0 0 C0.6403418 0.21430664 1.28068359 0.42861328 1.94042969 0.64941406 C15.96833571 5.45598336 27.92405435 13.19535 39 23 C39.69609375 23.61230469 40.3921875 24.22460938 41.109375 24.85546875 C59.52947583 42.13352333 70.09203474 67.82869533 71.2578125 92.78515625 C72.07027805 119.62679766 64.45372361 144.28287009 47 165 C46.34515625 165.80050781 45.6903125 166.60101563 45.015625 167.42578125 C29.81669315 185.25956443 6.85382325 197.60836232 -16.4296875 200.75390625 C-48.04726369 202.9332359 -73.91727579 196.84963787 -99 177 C-99.65871094 176.49726563 -100.31742188 175.99453125 -100.99609375 175.4765625 C-116.39922387 163.16828762 -126.7589331 143.66793096 -132 125 C-147.03036894 124.95311401 -162.06073218 124.91793029 -177.09115887 124.89637566 C-184.07129561 124.88609791 -191.05138671 124.87210524 -198.03149414 124.84912109 C-204.77476747 124.82692753 -211.51799347 124.815412 -218.26130104 124.81024551 C-220.82673702 124.80656624 -223.39217058 124.79938175 -225.95758629 124.78853989 C-229.56642512 124.7739027 -233.17507154 124.77202715 -236.78393555 124.77294922 C-237.83123337 124.76575867 -238.87853119 124.75856812 -239.95756531 124.75115967 C-257.52289474 124.79934043 -271.99507223 128.53852546 -284.8984375 140.8046875 C-295.22995133 151.67759071 -297.59794504 164.76738144 -300 179 C-304.75676841 207.15439801 -312.47406533 231.0577172 -334 251 C-332.61885598 254.16972553 -331.06774106 256.02363246 -328.5 258.3125 C-309.75194723 276.68627223 -303.466259 301.85217355 -299.72094727 326.91015625 C-297.11146096 344.18573346 -292.07789651 357.54589753 -278.4609375 369.2109375 C-268.51040205 376.44481883 -257.50363067 378.26041962 -245.5625 379.125 C-244.44939453 379.21136719 -243.33628906 379.29773438 -242.18945312 379.38671875 C-239.46005838 379.59757328 -236.73033879 379.80181226 -234 380 C-233.75507812 378.70835937 -233.51015625 377.41671875 -233.2578125 376.0859375 C-232.10414816 370.91970332 -230.17683172 366.37489632 -227.875 361.625 C-227.47394043 360.79282959 -227.07288086 359.96065918 -226.65966797 359.10327148 C-223.40607542 352.51715308 -219.75824864 346.62025021 -215 341 C-214.58492187 340.50951172 -214.16984375 340.01902344 -213.7421875 339.51367188 C-196.72855384 319.63955887 -173.23053617 305.94030979 -147 303 C-133.47797758 302.0627444 -120.10132724 302.30023644 -107 306 C-106.00742187 306.26683594 -105.01484375 306.53367187 -103.9921875 306.80859375 C-78.05766654 314.58895004 -57.03900289 332.25153993 -43.83984375 355.78515625 C-31.24189606 379.21001052 -27.41951012 408.19832047 -34.66796875 433.98828125 C-39.4407726 449.02683873 -46.9490974 461.89415578 -57 474 C-57.63421875 474.83144531 -58.2684375 475.66289062 -58.921875 476.51953125 C-62.68696691 481.01357893 -67.3900538 484.4124209 -72 488 C-72.7734375 488.61230469 -73.546875 489.22460938 -74.34375 489.85546875 C-96.67844371 506.56824469 -124.5402724 510.64790221 -151.77392578 507.69970703 C-156.68119078 506.91145186 -161.29617971 505.59274928 -166 504 C-166.62970703 503.79101074 -167.25941406 503.58202148 -167.90820312 503.36669922 C-184.01580707 497.89781538 -197.12604787 489.08078599 -209 477 C-209.74894531 476.24976563 -210.49789062 475.49953125 -211.26953125 474.7265625 C-222.0704023 463.26528316 -230.3783779 448.3707396 -234 433 C-234.59312988 432.98018066 -235.18625977 432.96036133 -235.79736328 432.93994141 C-265.60750732 431.89569212 -291.4886583 427.40892284 -315 408 C-315.77601563 407.38769531 -316.55203125 406.77539062 -317.3515625 406.14453125 C-326.81766383 398.30071231 -334.0624418 388.32489215 -339.875 377.5625 C-340.21982422 376.932229 -340.56464844 376.30195801 -340.91992188 375.65258789 C-347.68328307 362.51668836 -350.24171389 348.55025158 -352.5625 334.125 C-354.58410754 319.54259356 -354.58410754 319.54259356 -360 306 C-360.77730469 304.51306641 -360.77730469 304.51306641 -361.5703125 302.99609375 C-368.66143289 291.32603382 -379.23031765 283.89431934 -392.3984375 280.375 C-402.40853447 278.14338669 -412.6137808 278.68196822 -422.8125 278.8125 C-424.87303706 278.82757829 -426.93358483 278.84126111 -428.99414062 278.85351562 C-433.99636245 278.88626226 -438.99806038 278.93787004 -444 279 C-444.38889404 280.06436279 -444.77778809 281.12872559 -445.1784668 282.2253418 C-450.52108912 296.73733271 -456.42203545 309.47603862 -467 321 C-467.84433594 321.92554688 -468.68867188 322.85109375 -469.55859375 323.8046875 C-488.22543482 343.36558627 -513.73019288 354.53827749 -540.66235352 355.3347168 C-569.0269107 355.73737979 -594.53381237 346.65222582 -615.12109375 326.83984375 C-616.0828836 325.89541821 -617.04257789 324.9488531 -618 324 C-618.87785156 323.13503906 -619.75570313 322.27007812 -620.66015625 321.37890625 C-632.64425298 308.91322294 -637.91052881 295.52856465 -644 279 C-662.48 279 -680.96 279 -700 279 C-702.475 286.425 -702.475 286.425 -705 294 C-706.37602815 296.91757494 -707.67966302 299.57303615 -709.3125 302.3125 C-709.70147461 302.97999268 -710.09044922 303.64748535 -710.49121094 304.33520508 C-713.85595842 309.98806298 -717.56064272 315.13275286 -722 320 C-722.6798999 320.75144287 -722.6798999 320.75144287 -723.37353516 321.51806641 C-741.04296717 340.80907854 -764.76698725 353.44753472 -791.19506836 355.140625 C-819.04266926 356.28367686 -844.41405614 349.18568014 -866 331 C-866.80050781 330.34515625 -867.60101562 329.6903125 -868.42578125 329.015625 C-886.90456655 313.26698683 -898.88654679 290.01262693 -902 266 C-903.03741285 250.42393798 -903.04241584 234.87669271 -898 220 C-897.78569336 219.3596582 -897.57138672 218.71931641 -897.35058594 218.05957031 C-888.73194589 192.90618852 -870.46215025 171.49089017 -846.61401367 159.65698242 C-838.96344454 156.02950562 -831.23698279 153.03250225 -823 151 C-821.66582031 150.66355469 -821.66582031 150.66355469 -820.3046875 150.3203125 C-793.4642879 144.73812113 -764.59652977 151.0468447 -741.74707031 165.80029297 C-720.97448887 180.06475149 -707.57176411 200.18605954 -700 224 C-700 224.66 -700 225.32 -700 226 C-681.19 226 -662.38 226 -643 226 C-642.67 223.69 -642.34 221.38 -642 219 C-641.07524706 216.39913236 -640.12323893 213.94644012 -639 211.4375 C-638.69094727 210.74495117 -638.38189453 210.05240234 -638.06347656 209.33886719 C-628.43985061 188.44157831 -612.9461733 172.36980886 -593 161 C-592.17757813 160.525625 -591.35515625 160.05125 -590.5078125 159.5625 C-566.94488991 146.86866965 -538.39494093 145.81742568 -513 153 C-497.79819056 157.62617242 -484.25531994 165.83261225 -473 177 C-472.13375 177.825 -471.2675 178.65 -470.375 179.5 C-469.59125 180.325 -468.8075 181.15 -468 182 C-467.41992188 182.58523437 -466.83984375 183.17046875 -466.2421875 183.7734375 C-455.54965293 195.05301319 -447.61949541 209.87714221 -444 225 C-438.02674036 225.10017076 -432.053988 225.17207253 -426.08007812 225.21972656 C-424.05525172 225.23962815 -422.03048111 225.26675946 -420.00585938 225.30175781 C-403.5672534 225.57844722 -387.73794285 225.24776277 -374 215 C-373.29488281 214.48695313 -372.58976563 213.97390625 -371.86328125 213.4453125 C-358.3914327 202.71915498 -355.02197747 186.75342512 -352.47808838 170.59146118 C-348.7419098 147.13814106 -342.96356372 126.28138177 -327 108 C-326.48308594 107.34 -325.96617187 106.68 -325.43359375 106 C-309.96812388 86.77475424 -285.08515873 75.70182559 -261.08351135 72.47315979 C-255.22462512 71.83947355 -249.39092617 71.86785022 -243.50366211 71.88647461 C-242.28315155 71.88632858 -241.06264099 71.88618256 -239.80514526 71.8860321 C-236.48551126 71.88660608 -233.16594078 71.89159343 -229.84631801 71.89860606 C-226.36699409 71.90489161 -222.88766917 71.90544749 -219.40834045 71.90663147 C-212.831887 71.90972953 -206.25545034 71.91792221 -199.67900425 71.92798096 C-192.18680016 71.93918964 -184.69459523 71.94466449 -177.20238483 71.94967639 C-161.80158019 71.96010622 -146.40079227 71.97767591 -131 72 C-130.86985504 71.39114456 -130.73971008 70.78228912 -130.60562134 70.15498352 C-130.34378555 68.94965218 -130.34378555 68.94965218 -130.07666016 67.7199707 C-129.9052652 66.92549026 -129.73387024 66.13100983 -129.55728149 65.31245422 C-124.43976348 44.07717856 -106.85737891 23.31625036 -88.62109375 11.81640625 C-62.12773012 -4.18542145 -29.8719862 -10.12503111 0 0 Z M-70.859375 65.2421875 C-79.61136005 76.5175551 -83.56749699 89.01959313 -82.83203125 103.25 C-80.90681563 117.88926332 -73.68906935 129.65192194 -62.5859375 139.14453125 C-50.80394965 147.59837449 -37.19488167 150.70793708 -22.953125 148.53515625 C-8.91820042 145.462744 2.79997624 137.61104572 10.875 125.6875 C17.83200858 113.92293595 20.41327408 101.48334495 17.78515625 88.046875 C14.10243349 73.75571203 5.82499604 61.84574303 -6.9609375 54.23828125 C-29.08582075 42.72999815 -53.55667287 46.88140646 -70.859375 65.2421875 Z M-839.96875 220.34765625 C-849.12569807 232.5892542 -851.20040279 246.08491354 -850 261 C-847.37763855 274.4264906 -839.55169406 285.69505643 -828.62109375 293.75390625 C-815.78718383 301.97337665 -802.2051931 304.02315986 -787.34375 301.33984375 C-773.57273638 297.552815 -762.96420614 289.51925909 -755.75 277.3125 C-749.0992842 265.46684492 -747.20791439 253.18949111 -750.1875 239.875 C-753.98414282 226.43803371 -761.94174331 215.31796375 -774 208 C-796.74075773 195.70492165 -823.1235942 200.26047642 -839.96875 220.34765625 Z M-575 212 C-575.84304688 212.6290625 -576.68609375 213.258125 -577.5546875 213.90625 C-586.16613298 221.27962824 -592.32720995 232.79230664 -594 244 C-595.10575234 260.38688715 -591.74216359 273.29415387 -581.19140625 286.21484375 C-572.77176487 295.3346632 -561.24835209 301.53734508 -548.83203125 302.3125 C-532.77813354 302.92910121 -519.46909634 298.80434458 -507.3125 287.9375 C-497.42184669 277.3080268 -492.28127423 263.44756259 -492.71484375 249.0078125 C-494.16048152 233.7593045 -500.7238652 222.39444278 -511.97265625 212.21484375 C-530.91316488 197.00798775 -555.89712242 197.62555747 -575 212 Z M-172.51953125 371.73828125 C-181.09721521 382.57439339 -186.49661872 396.03155863 -185 410 C-182.81244801 424.58367996 -176.32283803 436.51274666 -164.73828125 445.81640625 C-153.04923696 453.95589782 -140.26239842 457.77748728 -126.0546875 455.53515625 C-111.55672112 452.33651876 -99.5788524 445.08077834 -91.125 432.75 C-83.83842246 420.29563698 -81.94589633 406.67161552 -84.66015625 392.5703125 C-89.0614841 377.89921965 -98.63611534 366.74517641 -111.9453125 359.4765625 C-132.18248525 349.69439971 -157.60096951 354.67206024 -172.51953125 371.73828125 Z " fill="#ffffff" transform="translate(902,4)"/>
</svg>
