<svg viewBox="18 19 84 30" fill="none" xmlns="http://www.w3.org/2000/svg">
<g clip-path="url(#clip0_15967_3725)">
<path d="M19.9359 20.5008L35.9804 19.2963C37.928 19.111 38.4381 19.25 39.6901 20.1302L44.8373 23.7436C45.672 24.3458 45.9502 24.5311 45.9502 25.226V45.0071C45.9502 46.2579 45.4865 46.9992 43.9099 47.0918L25.2686 48.2036C24.063 48.25 23.5065 48.111 22.9037 47.3234L19.1476 42.4592C18.4521 41.5327 18.1738 40.8841 18.1738 40.0966V22.4928C18.1738 21.4736 18.6375 20.5934 19.9359 20.5008Z" fill="white" opacity="0.15"/>
<path fill-rule="evenodd" clip-rule="evenodd" d="M35.9804 19.2962L19.9359 20.5007C18.6375 20.5933 18.1738 21.4735 18.1738 22.4927V40.0965C18.1738 40.8841 18.4521 41.5789 19.1476 42.4591L22.9037 47.3697C23.5065 48.1572 24.1094 48.3425 25.2686 48.2499L43.9099 47.138C45.4865 47.0454 45.9502 46.3042 45.9502 45.0534V25.2259C45.9502 24.5773 45.7184 24.392 44.9301 23.8361C44.8837 23.7898 44.8373 23.7898 44.791 23.7435L39.6901 20.1764C38.4845 19.2499 37.9744 19.1572 35.9804 19.2962ZM25.686 24.9016C24.1557 24.9943 23.8311 25.0406 22.9501 24.2994L20.7706 22.5853C20.5388 22.3537 20.6315 22.0757 21.2343 22.0294L36.676 20.9176C37.9744 20.8249 38.6236 21.2419 39.1337 21.6588L41.7768 23.5582C41.9159 23.6045 42.1942 23.9288 41.8232 23.9288L25.8715 24.9016H25.686ZM23.9239 44.8681V28.0518C23.9239 27.3106 24.1557 26.9863 24.8049 26.94L43.1216 25.8745C43.7244 25.8281 44.0027 26.1987 44.0027 26.94V43.6173C44.0027 44.3585 43.8635 44.9607 42.8897 45.0071L25.3614 46.0262C24.3876 46.1189 23.9239 45.7483 23.9239 44.8681ZM41.2204 28.9783C41.3131 29.4879 41.2204 29.9975 40.7103 30.0438L39.8756 30.2291V42.6444C39.1337 43.0614 38.4845 43.2467 37.928 43.2467C37.047 43.2467 36.8151 42.9687 36.1195 42.1349L30.555 33.4256V41.8106L32.3171 42.2275C32.3171 42.2275 32.3171 43.2467 30.9259 43.2467L27.0307 43.4783C26.938 43.2467 27.0307 42.6908 27.4017 42.5981L28.4219 42.3202V31.2019L27.0307 31.063C26.938 30.5534 27.2162 29.8122 28.0045 29.7658L32.178 29.4879L37.928 38.2898V30.5071L36.4441 30.3218C36.3514 29.7195 36.7687 29.2563 37.3252 29.2099L41.2204 28.9783Z" fill="white"/>
<path d="M58.2855 39.8186V32.1748H58.4246L63.9428 39.8186H65.7049V28.5614H63.7573V36.2052H63.6182L58.1 28.5614H56.3379V39.8186H58.2855ZM71.1303 39.9576C73.6808 39.9576 75.211 38.2898 75.211 35.5103C75.211 32.7771 73.6344 31.063 71.1303 31.063C68.5799 31.063 67.0497 32.7307 67.0497 35.5103C67.0033 38.2898 68.5799 39.9576 71.1303 39.9576ZM71.1303 38.3362C69.7856 38.3362 68.9973 37.317 68.9973 35.5103C68.9973 33.7499 69.7856 32.6844 71.1303 32.6844C72.4751 32.6844 73.2634 33.7036 73.2634 35.5103C73.217 37.317 72.4751 38.3362 71.1303 38.3362ZM76.9731 29.21V31.341H75.6284V32.8697H76.9731V37.5023C76.9731 39.17 77.7614 39.8186 79.709 39.8186C80.08 39.8186 80.451 39.7723 80.7292 39.7259V38.2435C80.4973 38.2898 80.3582 38.2898 80.08 38.2898C79.2917 38.2898 78.9207 37.9192 78.9207 37.0854V32.916H80.7292V31.3873H78.9207V29.2563H76.9731V29.21ZM81.8885 39.8186H83.8361V31.2946H81.8885V39.8186ZM82.8623 29.8585C83.5115 29.8585 84.0216 29.3489 84.0216 28.7004C84.0216 28.0518 83.5115 27.5422 82.8623 27.5422C82.2131 27.5422 81.703 28.0518 81.703 28.7004C81.703 29.3489 82.2131 29.8585 82.8623 29.8585ZM89.1224 39.9576C91.6728 39.9576 93.2031 38.2898 93.2031 35.5103C93.2031 32.7771 91.6265 31.063 89.1224 31.063C86.572 31.063 85.0417 32.7307 85.0417 35.5103C84.9954 38.2898 86.572 39.9576 89.1224 39.9576ZM89.1224 38.3362C87.7776 38.3362 86.9893 37.317 86.9893 35.5103C86.9893 33.7499 87.7776 32.6844 89.1224 32.6844C90.4672 32.6844 91.2555 33.7036 91.2555 35.5103C91.2091 37.317 90.4672 38.3362 89.1224 38.3362ZM94.3624 39.8186H96.31V34.8154C96.31 33.5646 97.0519 32.7771 98.1648 32.7771C99.3241 32.7771 99.8805 33.4256 99.8805 34.7227V39.7723H101.828V34.2595C101.828 32.2212 100.808 31.063 98.9068 31.063C97.6547 31.063 96.7737 31.6652 96.3563 32.5918H96.2172V31.2946H94.3624V39.8186Z" fill="white"/>
</g>
<defs>
<clipPath id="clip0_15967_3725">
<rect width="83.6538" height="29" fill="white" transform="translate(18.1738 19.25)"/>
</clipPath>
</defs>
</svg>
