<svg viewBox="15 24 104 29" fill="none" xmlns="http://www.w3.org/2000/svg">
<g clip-path="url(#clip0_1697_979)">
<g clip-path="url(#clip1_1697_979)">
<path d="M48.2 37.671C48.2 42.312 51.1804 45.5479 55.3104 45.5479C59.4405 45.5479 62.4209 42.312 62.4209 37.671C62.4209 33.0301 59.4405 29.7942 55.3104 29.7942C51.1804 29.7942 48.2 33.0301 48.2 37.671ZM59.6959 37.671C59.6959 40.9921 57.8864 43.1423 55.3104 43.1423C52.7345 43.1423 50.9249 40.9921 50.9249 37.671C50.9249 34.35 52.7345 32.1998 55.3104 32.1998C57.8864 32.1998 59.6959 34.35 59.6959 37.671Z" fill="white"/>
<path d="M70.0948 45.5479C73.2243 45.5479 75.0126 42.9081 75.0126 39.7361C75.0126 36.564 73.2243 33.9242 70.0948 33.9242C68.6472 33.9242 67.5828 34.499 66.8802 35.3293V34.1371H64.3256V49.1457H66.8802V44.1428C67.5828 44.9731 68.6472 45.5479 70.0948 45.5479ZM66.8164 39.4167C66.8164 37.3091 68.0085 36.1595 69.5839 36.1595C71.436 36.1595 72.4366 37.6072 72.4366 39.7361C72.4366 41.8649 71.436 43.3126 69.5839 43.3126C68.0085 43.3126 66.8164 42.1417 66.8164 40.0767V39.4167Z" fill="white"/>
<path d="M81.9257 45.5479C84.1611 45.5479 85.928 44.377 86.7157 42.4184L84.523 41.5882C84.1823 42.7378 83.1818 43.3764 81.9257 43.3764C80.2865 43.3764 79.1369 42.2056 78.9453 40.2896H86.7796V39.438C86.7796 36.3724 85.0552 33.9242 81.8193 33.9242C78.5834 33.9242 76.4971 36.4576 76.4971 39.7361C76.4971 43.1848 78.7324 45.5479 81.9257 45.5479ZM81.798 36.0744C83.416 36.0744 84.1823 37.1388 84.2036 38.3736H79.073C79.4562 36.8621 80.4781 36.0744 81.798 36.0744Z" fill="white"/>
<path d="M88.6973 45.3137H91.2519V38.7568C91.2519 37.1601 92.4228 36.3085 93.5724 36.3085C94.9775 36.3085 95.531 37.3091 95.531 38.6929V45.3137H98.0857V37.9478C98.0857 35.5421 96.6806 33.9242 94.3388 33.9242C92.8912 33.9242 91.8906 34.5841 91.2519 35.3293V34.1371H88.6973V45.3137Z" fill="white"/>
<path d="M105.567 30.0284L99.7764 45.3138H102.48L103.779 41.8224H110.378L111.698 45.3138H114.444L108.654 30.0284H105.567ZM107.057 33.0514L109.484 39.4381H104.673L107.057 33.0514Z" fill="white"/>
<path d="M118.83 30.0727H116.105V45.3581H118.83V30.0727Z" fill="white"/>
<path d="M41.9567 35.6424C42.6006 33.7096 42.3789 31.5922 41.349 29.8341C39.8003 27.1375 36.6868 25.7502 33.646 26.4031C32.2933 24.8791 30.3498 24.0125 28.3123 24.0249C25.2041 24.0178 22.4463 26.019 21.4901 28.9763C19.4934 29.3853 17.7698 30.6351 16.7613 32.4065C15.201 35.096 15.5567 38.4863 17.6412 40.7926C16.9972 42.7254 17.219 44.8428 18.2488 46.6009C19.7976 49.2975 22.9111 50.6848 25.9519 50.0319C27.3037 51.5558 29.2481 52.4225 31.2856 52.4092C34.3956 52.4172 37.1542 50.4142 38.1105 47.4542C40.1072 47.0453 41.8307 45.7954 42.8393 44.024C44.3978 41.3345 44.0412 37.9469 41.9575 35.6406L41.9567 35.6424ZM31.2874 50.5544C30.0429 50.5562 28.8374 50.1206 27.8821 49.3232C27.9255 49.3001 28.0009 49.2584 28.0497 49.2283L33.7019 45.964C33.9911 45.7999 34.1685 45.4921 34.1667 45.1594V37.1912L36.5555 38.5705C36.5812 38.5829 36.5981 38.6078 36.6016 38.6362V45.2348C36.5981 48.1691 34.2217 50.5482 31.2874 50.5544ZM19.8588 45.673C19.2352 44.5962 19.0108 43.3339 19.2246 42.1089C19.2663 42.1337 19.3399 42.179 19.3922 42.2091L25.0444 45.4734C25.3309 45.6411 25.6858 45.6411 25.9732 45.4734L32.8734 41.4889V44.2476C32.8752 44.2759 32.8619 44.3034 32.8397 44.3212L27.1263 47.6201C24.5814 49.0855 21.3313 48.2144 19.8597 45.673H19.8588ZM18.3713 33.3352C18.9922 32.2566 19.9724 31.4317 21.1397 31.0032C21.1397 31.052 21.137 31.1381 21.137 31.1984V37.7278C21.1353 38.0596 21.3127 38.3674 21.601 38.5315L28.5012 42.5152L26.1124 43.8945C26.0885 43.9105 26.0583 43.9131 26.0317 43.9016L20.3174 40.6001C17.7778 39.1294 16.9068 35.8801 18.3704 33.3361L18.3713 33.3352ZM37.9978 37.9026L31.0976 33.918L33.4864 32.5396C33.5103 32.5236 33.5405 32.5209 33.5671 32.5325L39.2814 35.8314C41.8254 37.3012 42.6973 40.5557 41.2275 43.0997C40.6057 44.1766 39.6264 45.0015 38.46 45.4309V38.7062C38.4626 38.3745 38.2861 38.0676 37.9987 37.9026H37.9978ZM40.3751 34.3243C40.3334 34.2986 40.2598 34.2542 40.2074 34.2241L34.5552 30.9598C34.2687 30.7921 33.9139 30.7921 33.6265 30.9598L26.7262 34.9443V32.1856C26.7245 32.1573 26.7378 32.1298 26.76 32.112L32.4734 28.8158C35.0183 27.3477 38.2719 28.2215 39.7391 30.7673C40.3591 31.8424 40.5835 33.1011 40.3733 34.3243H40.3751ZM25.4276 39.2411L23.038 37.8618C23.0122 37.8494 22.9954 37.8245 22.9918 37.7961V31.1975C22.9936 28.2596 25.3771 25.8788 28.3149 25.8806C29.5577 25.8806 30.7605 26.317 31.7158 27.1118C31.6724 27.1349 31.5979 27.1766 31.5482 27.2067L25.896 30.471C25.6068 30.6351 25.4294 30.942 25.4312 31.2747L25.4276 39.2394V39.2411ZM26.7254 36.4434L29.7989 34.6685L32.8725 36.4425V39.9916L29.7989 41.7656L26.7254 39.9916V36.4434Z" fill="white"/>
</g>
</g>
<defs>
<clipPath id="clip0_1697_979">
<rect width="135.884" height="76.4349" fill="white"/>
</clipPath>
<clipPath id="clip1_1697_979">
<rect width="104.67" height="28.3851" fill="white" transform="translate(15.6071 24.0249)"/>
</clipPath>
</defs>
</svg>
