<svg xmlns="http://www.w3.org/2000/svg" width="781" height="134"><g fill="white" fill-rule="evenodd"><path d="M330.96 87.408c6.432 0 10.944-2.328 13.536-6.984 2.592-4.656 3.888-9.384 3.888-14.184 0-5.472-1.152-10.368-3.456-14.688-2.304-4.32-6.96-6.48-13.968-6.48-2.016 0-4.104.36-6.264 1.08a26.65 26.65 0 0 0-6.12 2.952v34.272a33.998 33.998 0 0 0 6.12 2.88c2.16.768 4.248 1.152 6.264 1.152ZM300 31.824h9.504l4.032 5.184c3.168-2.4 6.864-4.32 11.088-5.76 4.224-1.44 7.968-2.16 11.232-2.16 10.272 0 18.144 3.552 23.616 10.656 5.472 7.104 8.208 15.936 8.208 26.496 0 10.56-2.808 19.392-8.424 26.496-5.616 7.104-13.416 10.656-23.4 10.656-2.496 0-5.304-.432-8.424-1.296a40.808 40.808 0 0 1-8.856-3.6v33.264L300 133.2V31.824ZM402.24 0v101.664h-18.576V1.584L402.24 0Zm32.688 80.784c0 2.016.816 3.816 2.448 5.4 1.632 1.584 3.792 2.376 6.48 2.376 2.592 0 5.208-.576 7.848-1.728 2.64-1.152 5.16-2.88 7.56-5.184V70.992h-14.112c-3.264 0-5.784 1.008-7.56 3.024-1.776 2.016-2.664 4.272-2.664 6.768Zm9.216 22.608c-8.544 0-14.88-2.088-19.008-6.264-4.128-4.176-6.192-9.624-6.192-16.344 0-7.2 2.448-12.72 7.344-16.56 4.896-3.84 11.28-5.76 19.152-5.76h13.68c-.096-3.552-1.128-6.312-3.096-8.28-1.968-1.968-4.68-2.952-8.136-2.952-3.264 0-6.816.456-10.656 1.368-3.84.912-7.056 1.992-9.648 3.24l-5.04-15.552c2.688-1.824 6.792-3.336 12.312-4.536 5.52-1.2 9.768-1.8 12.744-1.8 8.352 0 15.504 2.424 21.456 7.272 5.952 4.848 8.928 11.016 8.928 18.504v45.936h-9.648l-4.608-5.904c-2.592 2.016-5.64 3.792-9.144 5.328-3.504 1.536-6.984 2.304-10.44 2.304Zm66.528-64.08c3.168-3.168 7.128-5.664 11.88-7.488 4.752-1.824 9-2.736 12.744-2.736 9.504 0 16.248 2.784 20.232 8.352 3.984 5.568 5.976 12.384 5.976 20.448v43.776h-18.72V58.752c0-4.416-1.056-7.8-3.168-10.152-2.112-2.352-5.184-3.528-9.216-3.528-2.688 0-5.496.696-8.424 2.088-2.928 1.392-5.592 3-7.992 4.824v49.68h-18.72v-69.84h9.792l5.616 7.488Zm87.696-2.88c3.072-2.4 6.6-4.224 10.584-5.472 3.984-1.248 7.56-1.872 10.728-1.872 9.504 0 16.248 2.784 20.232 8.352 3.984 5.568 5.976 12.384 5.976 20.448v43.776h-18.72V58.752c0-4.416-1.056-7.8-3.168-10.152-2.112-2.352-5.232-3.528-9.36-3.528-2.688 0-5.472.696-8.352 2.088-2.88 1.392-5.52 3-7.92 4.824v49.68h-18.576V1.584L598.368 0v36.432Zm78.624 44.352c0 2.016.816 3.816 2.448 5.4 1.632 1.584 3.792 2.376 6.48 2.376 2.592 0 5.208-.576 7.848-1.728 2.64-1.152 5.16-2.88 7.56-5.184V70.992h-14.112c-3.264 0-5.784 1.008-7.56 3.024-1.776 2.016-2.664 4.272-2.664 6.768Zm9.216 22.608c-8.544 0-14.88-2.088-19.008-6.264-4.128-4.176-6.192-9.624-6.192-16.344 0-7.2 2.448-12.72 7.344-16.56 4.896-3.84 11.28-5.76 19.152-5.76h13.68c-.096-3.552-1.128-6.312-3.096-8.28-1.968-1.968-4.68-2.952-8.136-2.952-3.264 0-6.816.456-10.656 1.368-3.84.912-7.056 1.992-9.648 3.24l-5.04-15.552c2.688-1.824 6.792-3.336 12.312-4.536 5.52-1.2 9.768-1.8 12.744-1.8 8.352 0 15.504 2.424 21.456 7.272 5.952 4.848 8.928 11.016 8.928 18.504v45.936H710.4l-4.608-5.904c-2.592 2.016-5.64 3.792-9.144 5.328-3.504 1.536-6.984 2.304-10.44 2.304Zm94.32-3.168c-1.536 1.248-3.72 2.28-6.552 3.096-2.832.816-5.352 1.224-7.56 1.224-8.64 0-15.432-2.184-20.376-6.552-4.944-4.368-7.416-10.584-7.416-18.648V46.368h-9.36v-14.4h9.36v-16.56l18.576-3.312v19.872h12.672l5.76 14.4H757.2v29.664c0 3.648.864 6.648 2.592 9 1.728 2.352 4.272 3.528 7.632 3.528 1.248 0 2.496-.144 3.744-.432 1.248-.288 2.544-.768 3.888-1.44l5.472 13.536Z"/><ellipse cx="120" cy="99.75" rx="120" ry="33.25" transform="rotate(180 120 99.75)"/><path d="M118.245 0s-10.823.175-22.532 4.51C84.004 8.842 77.34 14.496 72.84 18.61c-2.894 2.645-6.765 6.94-10.048 11.79-3.283 4.851-4.38 7.517-5.94 11.072C53.022 50.195 52 60.802 52 60.802h135.983s-1.243-10.583-6.195-21.73c-4.952-11.146-9.739-16.104-14.576-20.462-4.919-4.432-13.758-10.614-22.613-13.794-1.42-.51-2.82-1.07-4.596-1.61-1.776-.542-4.484-1.215-6.473-1.62a70.881 70.881 0 0 0-5.192-.831C126.411.523 120.216 0 120.216 0h-1.97Z"/></g></svg>