<svg viewBox="94 53 281 117" fill="none" xmlns="http://www.w3.org/2000/svg">
<path fill-rule="evenodd" clip-rule="evenodd" d="M374.694 113.349C374.694 93.3887 365.026 77.6387 346.546 77.6387C327.989 77.6387 316.762 93.3887 316.762 113.193C316.762 136.662 330.017 148.514 349.042 148.514C358.32 148.514 365.337 146.409 370.639 143.446V127.852C365.337 130.503 359.256 132.14 351.537 132.14C343.973 132.14 337.268 129.489 336.41 120.289H374.538C374.538 119.275 374.694 115.221 374.694 113.349ZM336.176 105.942C336.176 97.1313 341.556 93.4667 346.469 93.4667C351.225 93.4667 356.293 97.1313 356.293 105.942H336.176Z" fill="white"/>
<path fill-rule="evenodd" clip-rule="evenodd" d="M286.665 77.6387C279.024 77.6387 274.112 81.2253 271.383 83.7204L270.369 78.8862H253.216V169.8L272.708 165.668L272.786 143.602C275.593 145.629 279.726 148.514 286.587 148.514C300.544 148.514 313.253 137.286 313.253 112.57C313.175 89.958 300.31 77.6387 286.665 77.6387ZM281.987 131.36C277.387 131.36 274.658 129.723 272.786 127.696L272.708 98.7687C274.736 96.5076 277.543 94.9482 281.987 94.9482C289.082 94.9482 293.994 102.901 293.994 113.115C293.994 123.563 289.16 131.36 281.987 131.36Z" fill="white"/>
<path fill-rule="evenodd" clip-rule="evenodd" d="M226.394 73.0385L245.964 68.828V53L226.394 57.1324V73.0385Z" fill="white"/>
<path d="M245.964 78.9639H226.394V147.188H245.964V78.9639Z" fill="white"/>
<path fill-rule="evenodd" clip-rule="evenodd" d="M205.419 84.734L204.172 78.9642H187.33V147.188H206.823V100.952C211.423 94.9481 219.22 96.0397 221.637 96.8974V78.9642C219.142 78.0285 210.02 76.3131 205.419 84.734Z" fill="white"/>
<path fill-rule="evenodd" clip-rule="evenodd" d="M166.435 62.0444L147.41 66.0989L147.332 128.553C147.332 140.093 155.987 148.592 167.526 148.592C173.92 148.592 178.598 147.422 181.171 146.019V130.191C178.676 131.204 166.357 134.791 166.357 123.251V95.5718H181.171V78.9641H166.357L166.435 62.0444Z" fill="white"/>
<path fill-rule="evenodd" clip-rule="evenodd" d="M113.727 98.7687C113.727 95.7279 116.222 94.5583 120.354 94.5583C126.28 94.5583 133.765 96.3516 139.691 99.5484V81.2253C133.219 78.6523 126.826 77.6387 120.354 77.6387C104.526 77.6387 94 85.9036 94 99.7044C94 121.224 123.629 117.794 123.629 127.072C123.629 130.659 120.51 131.828 116.144 131.828C109.672 131.828 101.407 129.177 94.8577 125.591V144.148C102.109 147.266 109.438 148.592 116.144 148.592C132.362 148.592 143.511 140.561 143.511 126.604C143.433 103.369 113.727 107.501 113.727 98.7687Z" fill="white"/>
</svg>
